<svg xmlns="http://www.w3.org/2000/svg" width="24" height="24" viewBox="0 0 24 24"><path d="M291.2,508.668q-.171.028-.343.051Q291.028,508.7,291.2,508.668Zm0,0" transform="translate(-277.246 -484.846)" fill="#333"/><path d="M299.5,507.793l-.163.029Zm0,0" transform="translate(-285.32 -484.018)" fill="#333"/><path d="M278.011,510.34q-.2.023-.4.04Q277.811,510.363,278.011,510.34Zm0,0" transform="translate(-264.623 -486.428)" fill="#333"/><path d="M286.638,509.738l-.193.024Zm0,0" transform="translate(-273.031 -485.859)" fill="#333"/><path d="M306.808,506.41l-.144.03Zm0,0" transform="translate(-292.3 -482.709)" fill="#333"/><path d="M324.6,502.113l-.116.032Zm0,0" transform="translate(-309.283 -478.641)" fill="#333"/><path d="M319.185,503.543l-.127.033Zm0,0" transform="translate(-304.112 -479.995)" fill="#333"/><path d="M312.2,505.254l-.135.03Zm0,0" transform="translate(-297.448 -481.614)" fill="#333"/><path d="M273.7,511.09l-.216.016Zm0,0" transform="translate(-260.675 -487.138)" fill="#333"/><path d="M24,12A12,12,0,1,0,12,24l.211,0V14.656H9.633v-3h2.578V9.44a3.609,3.609,0,0,1,3.853-3.96,21.223,21.223,0,0,1,2.311.118v2.68H16.8c-1.244,0-1.485.591-1.485,1.459v1.914h2.975l-.388,3H15.312v8.881A12.006,12.006,0,0,0,24,12Zm0,0" fill="#333"/><path d="M265.319,511.43q-.213.014-.429.021Q265.106,511.444,265.319,511.43Zm0,0" transform="translate(-252.501 -487.46)" fill="#333"/><path d="M260.731,511.836l-.227.006Zm0,0" transform="translate(-248.307 -487.845)" fill="#333"/></svg>