<svg xmlns="http://www.w3.org/2000/svg" width="208.495" height="110.5" viewBox="0 0 208.495 110.5"><g transform="translate(-277.5 -7628.588)"><rect width="13.078" height="9.007" transform="translate(351.002 7643.899)" fill="#1e364a" stroke="#1e364a" stroke-width="1"/><rect width="13.078" height="9.007" transform="translate(351.002 7629.088)" fill="#1e364a" stroke="#1e364a" stroke-width="1"/><rect width="13.078" height="9.007" transform="translate(386.662 7629.088)" fill="#1e364a" stroke="#1e364a" stroke-width="1"/><rect width="13.078" height="9.007" transform="translate(386.662 7643.899)" fill="#1e364a" stroke="#1e364a" stroke-width="1"/><rect width="13.078" height="9.007" transform="translate(368.921 7629.088)" fill="#1e364a" stroke="#1e364a" stroke-width="1"/><rect width="13.078" height="9.007" transform="translate(351.002 7658.53)" fill="#1e364a" stroke="#1e364a" stroke-width="1"/><rect width="13.078" height="9.007" transform="translate(386.662 7658.53)" fill="#1e364a" stroke="#1e364a" stroke-width="1"/><rect width="13.078" height="9.007" transform="translate(369.115 7658.53)" fill="#1e364a" stroke="#1e364a" stroke-width="1"/><rect width="13.078" height="9.007" transform="translate(278 7673.234)" fill="#1e364a" stroke="#1e364a" stroke-width="1"/><rect width="13.078" height="9.006" transform="translate(278 7686.895)" fill="#1e364a" stroke="#1e364a" stroke-width="1"/><rect width="13.078" height="9.007" transform="translate(278 7700.658)" fill="#1e364a" stroke="#1e364a" stroke-width="1"/><rect width="13.078" height="9.007" transform="translate(295.559 7700.658)" fill="#1e364a" stroke="#1e364a" stroke-width="1"/><rect width="13.078" height="9.007" transform="translate(314.013 7700.658)" fill="#1e364a" stroke="#1e364a" stroke-width="1"/><rect width="13.078" height="9.007" transform="translate(332.641 7700.658)" fill="#1e364a" stroke="#1e364a" stroke-width="1"/><rect width="13.078" height="9.007" transform="translate(351.002 7700.658)" fill="#1e364a" stroke="#1e364a" stroke-width="1"/><rect width="13.078" height="9.006" transform="translate(351.002 7686.895)" fill="#1e364a" stroke="#1e364a" stroke-width="1"/><rect width="13.078" height="9.007" transform="translate(314.013 7714.146)" fill="#1e364a" stroke="#1e364a" stroke-width="1"/><rect width="13.078" height="9.009" transform="translate(314.013 7727.448)" fill="#1e364a" stroke="#1e364a" stroke-width="1"/><rect width="13.078" height="9.006" transform="translate(314.013 7686.895)" fill="#1e364a" stroke="#1e364a" stroke-width="1"/><rect width="13.078" height="9.007" transform="translate(314.013 7673.234)" fill="#1e364a" stroke="#1e364a" stroke-width="1"/><rect width="13.078" height="9.007" transform="translate(332.641 7673.234)" fill="#1e364a" stroke="#1e364a" stroke-width="1"/><rect width="13.078" height="9.007" transform="translate(351.002 7673.234)" fill="#1e364a" stroke="#1e364a" stroke-width="1"/><text transform="translate(376.995 7691.088)" fill="#1e364a" font-size="18" font-family="Helvetica" letter-spacing="0.015em"><tspan x="0" y="0">YOUNG</tspan><tspan x="0" y="22">DESIGNERS</tspan><tspan x="0" y="44">PLATFORM</tspan></text></g></svg>