<svg xmlns="http://www.w3.org/2000/svg" width="386.339" height="78.842" viewBox="0 0 386.339 78.842"><g transform="translate(-278 -57)"><path d="M1.471-1.693v-14H9.922v14H7.6V-13.836H3.779V-1.693Zm11.9,0H11.243l3.785-14h2.851l3.6,14H19.038l-2.79-11.631Zm12.059-14H28.03l3.754,14H29.435L28.553-5.2H24.46L23.6-1.693H21.383Zm2.656,8.667-1.59-6.41-1.579,6.41Zm3.2-8.667h8.544v1.969H36.7V-1.693H34.386V-13.724h-3.1Zm13.7,12.687a4.926,4.926,0,0,1-3.605-1.805,6.131,6.131,0,0,1-1.174-3.815,5.984,5.984,0,0,1,1.3-4.082A5.061,5.061,0,0,1,44.988-14.4v-1.733h1.949V-14.4a5.039,5.039,0,0,1,3.544,1.764,6.023,6.023,0,0,1,1.236,3.928q0,4.974-4.779,5.7v1.744H44.988Zm0-9.713q-2.5.595-2.5,4.092,0,3.313,2.5,3.938Zm1.949,8.031q2.5-.605,2.5-4.092,0-3.313-2.5-3.938ZM63.857-8.7a9.475,9.475,0,0,1-1.282,5.426,4.258,4.258,0,0,1-3.723,1.836A4.324,4.324,0,0,1,55.1-3.267,9.354,9.354,0,0,1,53.8-8.7a9.4,9.4,0,0,1,1.292-5.41,4.3,4.3,0,0,1,3.754-1.841,4.278,4.278,0,0,1,3.723,1.831A9.39,9.39,0,0,1,63.857-8.7Zm-2.431,0a10.729,10.729,0,0,0-.579-3.923,2.051,2.051,0,0,0-2.026-1.431A2.042,2.042,0,0,0,56.8-12.616,10.824,10.824,0,0,0,56.226-8.7a11.035,11.035,0,0,0,.564,3.9,2.059,2.059,0,0,0,2.062,1.456,2.032,2.032,0,0,0,1.99-1.41A10.615,10.615,0,0,0,61.426-8.7Zm4.961-6.995h3.467a9.568,9.568,0,0,1,2.7.313A3.2,3.2,0,0,1,74.3-14,4.575,4.575,0,0,1,75-11.416a4.681,4.681,0,0,1-.574,2.379A3.378,3.378,0,0,1,72.885-7.6a7.584,7.584,0,0,1-2.979.441h-1.2v5.467H66.387ZM68.705-13.9v4.882h1.149a3.045,3.045,0,0,0,2.128-.574,2.52,2.52,0,0,0,.59-1.867,2.828,2.828,0,0,0-.39-1.564,1.632,1.632,0,0,0-.856-.738,5.647,5.647,0,0,0-1.472-.138Zm8.325-1.795h3.436L83.256-5.6l2.862-10.092H89.41v14H87.236V-13.642L83.913-1.693H82.231L78.969-13.652V-1.693H77.031Zm18.018,0h2.595l3.754,14H99.048L98.166-5.2H94.074l-.862,3.508H91ZM97.7-7.026l-1.59-6.41-1.579,6.41Zm9.594-8.667h3.436L113.525-5.6l2.862-10.092h3.292v14H117.5V-13.642L114.181-1.693H112.5l-3.262-11.959V-1.693H107.3ZM132.291-8.7a9.475,9.475,0,0,1-1.282,5.426,4.258,4.258,0,0,1-3.723,1.836,4.324,4.324,0,0,1-3.754-1.831,9.354,9.354,0,0,1-1.3-5.431,9.4,9.4,0,0,1,1.292-5.41,4.3,4.3,0,0,1,3.754-1.841A4.278,4.278,0,0,1,131-14.119,9.39,9.39,0,0,1,132.291-8.7Zm-2.431,0a10.729,10.729,0,0,0-.579-3.923,2.051,2.051,0,0,0-2.026-1.431,2.042,2.042,0,0,0-2.02,1.436A10.824,10.824,0,0,0,124.66-8.7a11.035,11.035,0,0,0,.564,3.9,2.059,2.059,0,0,0,2.062,1.456,2.032,2.032,0,0,0,1.99-1.41A10.615,10.615,0,0,0,129.86-8.7Zm5.413,7.005H133.14l3.785-14h2.851l3.6,14h-2.441l-2.79-11.631ZM154.306-8.7a9.475,9.475,0,0,1-1.282,5.426A4.258,4.258,0,0,1,149.3-1.436a4.324,4.324,0,0,1-3.754-1.831,9.354,9.354,0,0,1-1.3-5.431,9.4,9.4,0,0,1,1.292-5.41,4.3,4.3,0,0,1,3.754-1.841,4.278,4.278,0,0,1,3.723,1.831A9.39,9.39,0,0,1,154.306-8.7Zm-2.431,0a10.729,10.729,0,0,0-.579-3.923,2.051,2.051,0,0,0-2.026-1.431,2.042,2.042,0,0,0-2.021,1.436,10.824,10.824,0,0,0-.574,3.918,11.035,11.035,0,0,0,.564,3.9A2.059,2.059,0,0,0,149.3-3.344a2.032,2.032,0,0,0,1.99-1.41A10.615,10.615,0,0,0,151.875-8.7Zm4.448,5.056,3.046-12.051h3.405l2.759,12.051h.79V1.292h-1.61l-.267-2.985H157.39l-.256,2.985h-1.61V-3.642Zm2.082,0h4.718l-1.969-9.682h-.564Zm9.782,1.949v-14H170.5v5.426h1.949a6.694,6.694,0,0,1,2.446.354,2.827,2.827,0,0,1,1.41,1.395,5.333,5.333,0,0,1,.544,2.5,4.819,4.819,0,0,1-.969,3.133,3.622,3.622,0,0,1-2.99,1.195ZM170.5-3.642h2.236a1.73,1.73,0,0,0,1.313-.554,2.63,2.63,0,0,0,.523-1.836,2.521,2.521,0,0,0-.549-1.841,1.779,1.779,0,0,0-1.287-.538H170.5Zm7.487-12.051H180.3v14h-2.318Zm4.141,0H184.7l2.01,4.462,2.236-4.462h2.164l-3.241,6.359,3.682,7.641h-2.605l-2.379-5.364-2.7,5.364h-2.195l3.744-7.251Zm14.7,12.051,3.046-12.051h3.405l2.759,12.051h.79V1.292h-1.61l-.267-2.985h-7.056l-.256,2.985h-1.61V-3.642Zm2.082,0h4.718l-1.969-9.682h-.564ZM211-2.934v1.241h-2.308v-14H211v7.856q0,.144-.072,1.938a16.031,16.031,0,0,1,1.21-2.605l3.292-5.826v-1.364h2.308v14h-2.308V-8.954q0-.1.072-2.41a18.625,18.625,0,0,1-1.231,2.615Zm8.9-2.7,2.092-.4q.441,2.687,2.595,2.687a1.873,1.873,0,0,0,1.585-.7,2.741,2.741,0,0,0,.538-1.718,2.527,2.527,0,0,0-.538-1.764,1.746,1.746,0,0,0-1.338-.585h-1.118V-9.775h1.118a1.661,1.661,0,0,0,1.133-.528,2.139,2.139,0,0,0,.559-1.626,2.1,2.1,0,0,0-.564-1.544,1.987,1.987,0,0,0-1.477-.569q-1.877,0-2.267,2.308l-2-.318q.595-3.9,4.359-3.9a4.314,4.314,0,0,1,3.133,1.062,3.509,3.509,0,0,1,1.092,2.621,3.173,3.173,0,0,1-2.236,3.138,3.184,3.184,0,0,1,2.574,3.3A4.461,4.461,0,0,1,227.983-2.7a4.378,4.378,0,0,1-3.4,1.262Q220.471-1.436,219.9-5.631Zm14.366-10.062h2.595l3.754,14h-2.349L237.38-5.2h-4.092l-.862,3.508h-2.215Zm2.656,8.667-1.59-6.41-1.579,6.41Zm7.72,4.092v1.241h-2.308v-14h2.308v7.856q0,.144-.072,1.938a16.027,16.027,0,0,1,1.21-2.605l3.292-5.826v-1.364h2.308v14H249.07V-8.954q0-.1.072-2.41a18.627,18.627,0,0,1-1.231,2.615Zm-.862-16.585h1.436a1.559,1.559,0,0,0,1.713,1.149,1.545,1.545,0,0,0,1.692-1.149h1.446a2.878,2.878,0,0,1-3.138,2.5A2.884,2.884,0,0,1,243.778-19.519Zm10.6,3.826H256.7v5.805h4.123v-5.805h2.318v14h-2.318V-7.929H256.7v6.236H254.38Zm11.761,0h8.021v1.856h-5.7v4h4.472V-7.97h-4.472V-3.59h5.795v1.9h-8.113Zm9.977,0h3.467a9.569,9.569,0,0,1,2.7.313A3.2,3.2,0,0,1,284.025-14a4.575,4.575,0,0,1,.708,2.579,4.681,4.681,0,0,1-.574,2.379A3.378,3.378,0,0,1,282.615-7.6a7.585,7.585,0,0,1-2.979.441h-1.2v5.467h-2.318Zm2.318,1.795v4.882h1.149a3.045,3.045,0,0,0,2.128-.574,2.52,2.52,0,0,0,.59-1.867,2.827,2.827,0,0,0-.39-1.564,1.632,1.632,0,0,0-.856-.738,5.647,5.647,0,0,0-1.472-.138Zm17.977,5.2a9.475,9.475,0,0,1-1.282,5.426,4.258,4.258,0,0,1-3.723,1.836,4.324,4.324,0,0,1-3.754-1.831,9.354,9.354,0,0,1-1.3-5.431,9.4,9.4,0,0,1,1.292-5.41,4.3,4.3,0,0,1,3.754-1.841,4.278,4.278,0,0,1,3.723,1.831A9.39,9.39,0,0,1,296.412-8.7Zm-2.431,0a10.729,10.729,0,0,0-.579-3.923,2.051,2.051,0,0,0-2.026-1.431,2.042,2.042,0,0,0-2.021,1.436,10.823,10.823,0,0,0-.574,3.918,11.034,11.034,0,0,0,.564,3.9,2.059,2.059,0,0,0,2.061,1.456,2.032,2.032,0,0,0,1.99-1.41A10.614,10.614,0,0,0,293.982-8.7Zm4.961-6.995h4.236a8.74,8.74,0,0,1,2.431.256,2.6,2.6,0,0,1,1.405,1.144,3.889,3.889,0,0,1,.574,2.159,2.953,2.953,0,0,1-2.082,3.067,3.343,3.343,0,0,1,2.513,3.518,4.021,4.021,0,0,1-.99,2.7q-.99,1.154-3.79,1.154h-4.3Zm2.267,5.805h1.467a2.7,2.7,0,0,0,2.041-.569,2.17,2.17,0,0,0,.492-1.472,1.838,1.838,0,0,0-.564-1.513A2.748,2.748,0,0,0,302.9-13.9h-1.692Zm0,6.338h1.867q2.564,0,2.564-2.267A2.5,2.5,0,0,0,305.1-7.4a2.727,2.727,0,0,0-2.215-.7h-1.672Z" transform="translate(356.319 111.688)" fill="#a77b51"/><rect width="9.605" height="6.615" transform="translate(278 89.417)" fill="#a77b51"/><rect width="9.605" height="6.615" transform="translate(278 99.447)" fill="#a77b51"/><rect width="9.605" height="6.615" transform="translate(278 109.555)" fill="#a77b51"/><rect width="9.605" height="6.615" transform="translate(290.896 109.555)" fill="#a77b51"/><rect width="9.605" height="6.615" transform="translate(304.445 109.555)" fill="#a77b51"/><rect width="9.605" height="6.615" transform="translate(318.123 109.555)" fill="#a77b51"/><rect width="9.605" height="6.615" transform="translate(331.605 109.555)" fill="#a77b51"/><rect width="9.605" height="6.615" transform="translate(331.605 99.447)" fill="#a77b51"/><rect width="9.605" height="6.616" transform="translate(331.605 78.62)" fill="#a77b51"/><rect width="9.605" height="6.616" transform="translate(331.605 67.878)" fill="#a77b51"/><rect width="9.605" height="6.615" transform="translate(331.605 57)" fill="#a77b51"/><rect width="9.605" height="6.615" transform="translate(357.79 57)" fill="#a77b51"/><rect width="9.605" height="6.616" transform="translate(357.79 67.878)" fill="#a77b51"/><rect width="9.605" height="6.616" transform="translate(357.79 78.62)" fill="#a77b51"/><rect width="9.605" height="6.616" transform="translate(344.763 78.62)" fill="#a77b51"/><rect width="9.605" height="6.615" transform="translate(344.763 57)" fill="#a77b51"/><rect width="9.605" height="6.616" transform="translate(304.445 119.456)" fill="#a77b51"/><rect width="9.605" height="6.617" transform="translate(304.445 129.225)" fill="#a77b51"/><rect width="9.605" height="6.615" transform="translate(304.445 99.447)" fill="#a77b51"/><rect width="9.605" height="6.615" transform="translate(304.445 89.417)" fill="#a77b51"/><rect width="9.605" height="6.615" transform="translate(318.123 89.417)" fill="#a77b51"/><rect width="9.605" height="6.615" transform="translate(331.605 89.417)" fill="#a77b51"/></g></svg>