<svg xmlns="http://www.w3.org/2000/svg" width="24" height="24" viewBox="0 0 24 24"><g transform="translate(910.591 51.59)"><path d="M216.758,211.879A4.879,4.879,0,1,1,211.879,207,4.879,4.879,0,0,1,216.758,211.879Zm0,0" transform="translate(-1110.47 -251.47)" fill="#333"/><path d="M158.9,138.856a4.847,4.847,0,0,0-2.778-2.778,8.1,8.1,0,0,0-2.718-.5c-1.544-.07-2.007-.086-5.915-.086s-4.372.015-5.915.085a8.1,8.1,0,0,0-2.718.5,4.849,4.849,0,0,0-2.778,2.778,8.1,8.1,0,0,0-.5,2.718c-.07,1.543-.086,2.006-.086,5.915s.015,4.371.086,5.915a8.1,8.1,0,0,0,.5,2.718,4.847,4.847,0,0,0,2.778,2.778,8.088,8.088,0,0,0,2.718.5c1.543.07,2.006.085,5.915.085s4.372-.015,5.915-.085a8.088,8.088,0,0,0,2.718-.5,4.847,4.847,0,0,0,2.778-2.778,8.106,8.106,0,0,0,.5-2.718c.07-1.544.085-2.007.085-5.915s-.015-4.372-.085-5.915A8.088,8.088,0,0,0,158.9,138.856ZM147.485,155A7.516,7.516,0,1,1,155,147.488,7.516,7.516,0,0,1,147.485,155Zm7.813-13.573a1.757,1.757,0,1,1,1.757-1.757A1.757,1.757,0,0,1,155.3,141.431Zm0,0" transform="translate(-1046.075 -187.079)" fill="#333"/></g></svg>