<svg xmlns="http://www.w3.org/2000/svg" width="24" height="24" viewBox="0 0 24 24"><path d="M2633,24a12,12,0,0,1-8.485-20.485,12,12,0,0,1,16.971,16.971A11.922,11.922,0,0,1,2633,24Zm-1.81-13.253a3.467,3.467,0,0,0-2.567,1.111,3.786,3.786,0,0,0-1,2.593,3.925,3.925,0,0,0,.929,2.472,3.42,3.42,0,0,0,2.677,1.22,3.628,3.628,0,0,0,3.618-3.679V10.572a4.94,4.94,0,0,0,2.591.793V9.383a2.73,2.73,0,0,1-2.675-2.763h-1.937v7.841a1.629,1.629,0,0,1-1.573,1.635,1.651,1.651,0,0,1-1.62-1.647,1.561,1.561,0,0,1,1.633-1.647,1.093,1.093,0,0,1,.471.074V10.785h0A4.067,4.067,0,0,0,2631.19,10.746Z" transform="translate(-2621)" fill="#333"/></svg>