<svg xmlns="http://www.w3.org/2000/svg" width="24" height="24" viewBox="0 0 24 24"><path d="M2633,24a12,12,0,0,1-8.485-20.485,12,12,0,0,1,16.971,16.971A11.922,11.922,0,0,1,2633,24Zm0-16.552c-4.651,0-5.034.076-5.567.606-.579.576-.64,1.551-.64,3.641s.061,3.065.64,3.64c.553.55,1.073.607,5.567.607s5.014-.057,5.568-.607c.579-.575.64-1.551.64-3.64s-.061-3.065-.64-3.641C2638.013,7.5,2637.493,7.448,2633,7.448Zm-1.058,6.185h0V9.984l3.174,1.811-3.173,1.838Z" transform="translate(-2621)" fill="#333"/></svg>